<svg width="139" height="24" viewBox="0 0 139 24" fill="none" xmlns="http://www.w3.org/2000/svg">
<g clip-path="url(#clip0_467_255)">
<path d="M2.904 21V5.27H10.934V6.194H3.96V11.98H10.34V12.882H3.96V21H2.904ZM25.6682 19.482C24.6562 20.67 23.1162 21.264 21.0482 21.264C18.9802 21.264 17.4328 20.6627 16.4062 19.46C15.3942 18.2573 14.8882 16.6147 14.8882 14.532V5.27H15.9442V14.532C15.9442 18.404 17.6382 20.34 21.0262 20.34C24.4288 20.34 26.1302 18.404 26.1302 14.532V5.27H27.1862V14.532C27.1862 16.6293 26.6802 18.2793 25.6682 19.482ZM32.8102 21V5.336C34.2036 5.23333 35.3696 5.182 36.3083 5.182C37.8043 5.182 39.0363 5.57067 40.0043 6.348C40.9723 7.11067 41.4563 8.196 41.4563 9.604C41.4563 10.5573 41.1776 11.4447 40.6203 12.266C40.0629 13.0873 39.4396 13.74 38.7503 14.224C39.2929 14.972 39.9603 15.8667 40.7523 16.908C41.5589 17.9347 42.0796 18.58 42.3143 18.844C43.2089 19.7973 44.2209 20.34 45.3503 20.472L45.3283 21.176C44.4336 21.1613 43.7076 21.0293 43.1503 20.78C42.5929 20.516 42.0576 20.12 41.5443 19.592C41.0456 19.064 39.7916 17.4213 37.7823 14.664C36.3449 14.664 35.0396 14.62 33.8663 14.532V21H32.8102ZM37.1443 13.784C37.7896 13.784 38.4789 13.3587 39.2123 12.508C39.9456 11.6573 40.3123 10.6747 40.3123 9.56C40.3123 8.43067 39.9309 7.58 39.1683 7.008C38.4203 6.42133 37.4229 6.128 36.1763 6.128C35.5163 6.128 34.7463 6.15733 33.8663 6.216V13.674C35.0396 13.7473 36.1323 13.784 37.1443 13.784ZM48.3027 7.778L48.3467 9.648V21H47.2907V5.138H47.7747L58.1367 17.084C58.8407 17.92 59.3834 18.5873 59.7647 19.086C59.7061 18.382 59.6767 17.5753 59.6767 16.666V5.27H60.7327V21.132H60.2487L49.6887 8.966C48.9554 8.13 48.4861 7.57267 48.2807 7.294L48.3027 7.778ZM66.5407 21V5.27H67.5967V21H66.5407ZM80.1922 6.656C79.1216 6.20133 78.0582 5.974 77.0022 5.974C74.8609 5.974 73.7902 6.766 73.7902 8.35C73.7902 9.03933 74.0322 9.68467 74.5162 10.286C75.0002 10.8727 75.5869 11.4007 76.2762 11.87C76.9656 12.3247 77.6549 12.794 78.3442 13.278C79.0336 13.762 79.6202 14.3413 80.1042 15.016C80.5882 15.6907 80.8302 16.424 80.8302 17.216C80.8302 18.5507 80.3829 19.5627 79.4882 20.252C78.5936 20.9267 77.3542 21.264 75.7702 21.264C74.2009 21.264 72.8589 20.8607 71.7442 20.054L72.2722 19.262C73.3282 19.9513 74.4869 20.296 75.7482 20.296C77.0096 20.296 77.9776 20.0467 78.6522 19.548C79.3269 19.0347 79.6642 18.3013 79.6642 17.348C79.6642 16.688 79.4222 16.0647 78.9382 15.478C78.4542 14.8767 77.8676 14.3413 77.1782 13.872C76.4889 13.388 75.7996 12.8967 75.1102 12.398C74.4209 11.8993 73.8342 11.3053 73.3502 10.616C72.8662 9.92667 72.6242 9.186 72.6242 8.394C72.6242 7.35267 73.0056 6.53133 73.7682 5.93C74.5456 5.314 75.5869 5.006 76.8922 5.006C78.2122 5.006 79.4369 5.27 80.5662 5.798L80.1922 6.656ZM92.8615 21.264C90.5735 21.264 88.6082 20.4867 86.9655 18.932C85.3228 17.3627 84.5015 15.434 84.5015 13.146C84.5015 10.8433 85.2202 8.91467 86.6575 7.36C88.0948 5.79067 89.9355 5.006 92.1795 5.006C93.9395 5.006 95.7215 5.29933 97.5255 5.886L97.2395 6.766C95.4795 6.238 93.7928 5.974 92.1795 5.974C90.2582 5.974 88.6888 6.66333 87.4715 8.042C86.2542 9.42067 85.6455 11.1073 85.6455 13.102C85.6455 15.0967 86.3495 16.798 87.7575 18.206C89.1802 19.5993 90.8815 20.296 92.8615 20.296C94.5922 20.296 96.0882 20.032 97.3495 19.504L97.6795 20.252C97.1222 20.5747 96.3888 20.824 95.4795 21C94.5848 21.176 93.7122 21.264 92.8615 21.264ZM102.654 15.544L100.388 21H99.2661L105.888 5.16H106.504L113.148 21H111.96L109.694 15.544H102.654ZM106.13 6.92C106.115 6.93467 106.086 7.02267 106.042 7.184C105.837 7.81467 105.639 8.35 105.448 8.79L103.028 14.642H109.32L106.9 8.812C106.387 7.69733 106.13 7.06667 106.13 6.92ZM116.406 21V5.358C117.623 5.24067 118.804 5.182 119.948 5.182C121.488 5.182 122.72 5.54133 123.644 6.26C124.583 6.97867 125.052 8.064 125.052 9.516C125.052 10.9533 124.414 12.1413 123.138 13.08C121.877 14.004 120.366 14.466 118.606 14.466C118.533 14.466 118.452 14.466 118.364 14.466V13.74C118.423 13.74 118.474 13.74 118.518 13.74C119.97 13.74 121.231 13.3587 122.302 12.596C123.373 11.8333 123.908 10.8433 123.908 9.626C123.908 8.394 123.534 7.50667 122.786 6.964C122.038 6.40667 121.033 6.128 119.772 6.128C119.112 6.128 118.342 6.15733 117.462 6.216V21H116.406ZM129.189 21V5.27H136.493V6.194H130.245V11.98H135.899V12.882H130.245V20.076H136.735V21H129.189Z" fill="white"/>
</g>
<defs>
<clipPath id="clip0_467_255">
<rect width="139" height="24" fill="white"/>
</clipPath>
</defs>
</svg>
